<?xml version="1.0" encoding="UTF-8"?>
<svg xmlns="http://www.w3.org/2000/svg" xmlns:xlink="http://www.w3.org/1999/xlink" width="100px" height="100px" viewBox="0 0 100 100" version="1.1">
<g id="surface1">
<path style=" stroke:none;fill-rule:nonzero;fill:rgb(93.333333%,31.764706%,23.137255%);fill-opacity:1;" d="M 8.078125 54.417969 C 5.640625 51.976562 5.640625 48.023438 8.078125 45.582031 L 45.582031 8.078125 C 48.023438 5.640625 51.976562 5.640625 54.417969 8.078125 L 91.921875 45.582031 C 94.359375 48.023438 94.359375 51.976562 91.921875 54.417969 L 54.417969 91.921875 C 51.976562 94.359375 48.023438 94.359375 45.582031 91.921875 Z M 8.078125 54.417969 "/>
<path style=" stroke:none;fill-rule:nonzero;fill:rgb(100%,100%,100%);fill-opacity:1;" d="M 37.964844 15.816406 L 34.167969 19.613281 L 43.976562 29.425781 C 43.582031 30.277344 43.359375 31.222656 43.359375 32.226562 C 43.359375 35.066406 45.144531 37.496094 47.65625 38.441406 L 47.65625 62.4375 C 45.144531 63.382812 43.359375 65.808594 43.359375 68.652344 C 43.359375 72.320312 46.332031 75.292969 50 75.292969 C 53.667969 75.292969 56.640625 72.320312 56.640625 68.652344 C 56.640625 66.074219 55.171875 63.839844 53.027344 62.738281 L 53.027344 38.472656 L 62.402344 47.851562 C 62.027344 48.683594 61.816406 49.609375 61.816406 50.585938 C 61.816406 54.253906 64.789062 57.226562 68.457031 57.226562 C 72.121094 57.226562 75.097656 54.253906 75.097656 50.585938 C 75.097656 46.917969 72.121094 43.945312 68.457031 43.945312 C 67.742188 43.945312 67.058594 44.058594 66.414062 44.265625 L 56.34375 34.195312 C 56.535156 33.574219 56.640625 32.910156 56.640625 32.226562 C 56.640625 28.558594 53.667969 25.585938 50 25.585938 C 49.3125 25.585938 48.652344 25.691406 48.03125 25.882812 Z M 37.964844 15.816406 "/>
</g>
</svg>
