<?xml version="1.0" encoding="UTF-8"?>
<svg xmlns="http://www.w3.org/2000/svg" xmlns:xlink="http://www.w3.org/1999/xlink" width="100px" height="100px" viewBox="0 0 100 100" version="1.1">
<g id="surface1">
<path style=" stroke:none;fill-rule:evenodd;fill:rgb(24.313725%,45.882353%,76.470588%);fill-opacity:1;" d="M 49.996094 1.042969 C 22.386719 1.042969 0 23.515625 0 51.242188 C 0 73.417969 14.324219 92.230469 34.199219 98.871094 C 36.699219 99.332031 37.609375 97.785156 37.609375 96.453125 C 37.609375 95.261719 37.566406 92.105469 37.542969 87.917969 C 23.628906 90.949219 20.699219 81.1875 20.699219 81.1875 C 18.425781 75.386719 15.144531 73.84375 15.144531 73.84375 C 10.605469 70.730469 15.488281 70.792969 15.488281 70.792969 C 20.503906 71.144531 23.144531 75.964844 23.144531 75.964844 C 27.609375 83.636719 34.847656 81.421875 37.699219 80.136719 C 38.152344 76.890625 39.449219 74.679688 40.875 73.425781 C 29.769531 72.15625 18.097656 67.851562 18.097656 48.617188 C 18.097656 43.136719 20.046875 38.65625 23.246094 35.144531 C 22.730469 33.875 21.015625 28.773438 23.734375 21.863281 C 23.734375 21.863281 27.933594 20.511719 37.484375 27.007812 C 41.472656 25.894531 45.75 25.339844 50.003906 25.316406 C 54.25 25.339844 58.527344 25.894531 62.519531 27.007812 C 72.066406 20.511719 76.253906 21.863281 76.253906 21.863281 C 78.984375 28.773438 77.269531 33.875 76.753906 35.144531 C 79.957031 38.65625 81.894531 43.136719 81.894531 48.617188 C 81.894531 67.898438 70.203125 72.144531 59.066406 73.386719 C 60.859375 74.9375 62.457031 77.996094 62.457031 82.683594 C 62.457031 89.394531 62.394531 94.804688 62.394531 96.453125 C 62.394531 97.792969 63.296875 99.355469 65.832031 98.863281 C 85.6875 92.214844 100 73.410156 100 51.242188 C 100 23.515625 77.613281 1.042969 49.996094 1.042969 "/>
</g>
</svg>
