<?xml version="1.0" encoding="UTF-8"?>
<svg xmlns="http://www.w3.org/2000/svg" xmlns:xlink="http://www.w3.org/1999/xlink" width="100px" height="100px" viewBox="0 0 100 100" version="1.1">
<defs>
<radialGradient id="radial0" gradientUnits="userSpaceOnUse" cx="-183.69" cy="328.972" fx="-183.69" fy="328.972" r="0.76" gradientTransform="matrix(91.666865,0,0,88.750199,16872.643752,-29170.931781)">
<stop offset="0" style="stop-color:rgb(20.392157%,21.176471%,30.588235%);stop-opacity:0.980392;"/>
<stop offset="1" style="stop-color:rgb(4.705882%,3.137255%,14.117647%);stop-opacity:1;"/>
</radialGradient>
</defs>
<g id="surface1">
<path style=" stroke:none;fill-rule:nonzero;fill:url(#radial0);" d="M 4.167969 5.417969 L 95.832031 5.417969 L 95.832031 94.582031 L 4.167969 94.582031 Z M 4.167969 5.417969 "/>
<path style=" stroke:none;fill-rule:nonzero;fill:rgb(19.215686%,77.254902%,94.117647%);fill-opacity:1;" d="M 4.167969 5.417969 L 95.832031 5.417969 L 95.832031 94.582031 L 4.167969 94.582031 Z M 0 98.75 L 100 98.75 L 100 1.25 L 0 1.25 Z M 67.417969 41.25 C 64.125 41.25 63 42.917969 63 44.292969 C 63 45.792969 63.75 46.832031 68.167969 49.125 C 74.707031 52.292969 76.75 55.332031 76.75 59.792969 C 76.75 66.457031 71.667969 70.042969 64.792969 70.042969 C 61.167969 70.042969 58.042969 69.292969 56.25 68.25 C 55.957031 68.125 55.917969 67.917969 55.917969 67.582031 L 55.917969 61.457031 C 55.917969 61.042969 56.125 60.917969 56.417969 61.125 C 59.042969 62.832031 62.042969 63.582031 64.792969 63.582031 C 68.082031 63.582031 69.457031 62.207031 69.457031 60.332031 C 69.457031 58.832031 68.5 57.5 64.292969 55.332031 C 58.375 52.5 55.917969 49.625 55.917969 44.832031 C 55.917969 39.457031 60.125 35 67.417969 35 C 71 35 73.5 35.542969 74.875 36.167969 C 75.207031 36.375 75.292969 36.707031 75.292969 37 L 75.292969 42.707031 C 75.292969 43.042969 75.082031 43.25 74.667969 43.125 C 72.832031 41.957031 70.125 41.25 67.417969 41.25 Z M 31.582031 46.207031 C 32.542969 46.292969 33.292969 46.292969 34.957031 46.292969 C 39.832031 46.292969 44.417969 44.582031 44.417969 37.957031 C 44.417969 32.667969 41.125 30 35.582031 30 C 33.917969 30 32.332031 30.082031 31.582031 30.125 Z M 24.167969 24.082031 C 24.167969 23.792969 24.75 23.582031 25.082031 23.582031 C 27.75 23.457031 31.707031 23.375 35.832031 23.375 C 47.375 23.375 51.875 29.707031 51.875 37.792969 C 51.875 48.375 44.207031 52.917969 34.792969 52.917969 C 33.207031 52.917969 32.667969 52.832031 31.542969 52.832031 L 31.542969 68.832031 C 31.542969 69.167969 31.417969 69.332031 31.042969 69.332031 L 24.667969 69.332031 C 24.332031 69.332031 24.167969 69.207031 24.167969 68.832031 Z M 24.167969 24.082031 "/>
</g>
</svg>
