<?xml version="1.0" encoding="UTF-8"?>
<svg xmlns="http://www.w3.org/2000/svg" xmlns:xlink="http://www.w3.org/1999/xlink" width="100px" height="100px" viewBox="0 0 100 100" version="1.1">
<g id="surface1">
<path style=" stroke:none;fill-rule:nonzero;fill:rgb(82.745098%,29.019608%,27.843137%);fill-opacity:1;" d="M 62.238281 96.953125 L 63.199219 80.972656 L 65.847656 76.457031 C 65.847656 76.457031 59.820312 78.921875 49.730469 78.921875 C 39.644531 78.921875 33.710938 76.5 33.710938 76.5 L 36.675781 81.433594 L 37.726562 96.953125 C 37.726562 98.617188 43.214844 99.964844 49.984375 99.964844 C 56.753906 99.964844 62.238281 98.617188 62.238281 96.953125 "/>
<path style=" stroke:none;fill-rule:nonzero;fill:rgb(82.745098%,29.019608%,27.843137%);fill-opacity:1;" d="M 59.214844 22.339844 L 61.230469 14.386719 L 72.371094 2.660156 L 69.433594 0.160156 L 57.636719 12.652344 L 55.300781 22.152344 C 53.605469 22.097656 51.839844 22.066406 50.019531 22.066406 C 37.597656 22.066406 27.519531 23.480469 27.519531 25.230469 C 27.519531 26.976562 37.597656 28.394531 50.019531 28.394531 C 62.449219 28.394531 72.523438 26.976562 72.523438 25.230469 C 72.523438 23.941406 67.058594 22.835938 59.214844 22.339844 "/>
<path style=" stroke:none;fill-rule:nonzero;fill:rgb(100%,100%,100%);fill-opacity:1;" d="M 58.042969 26.796875 C 58.042969 26.796875 57.609375 26.894531 56.328125 26.902344 C 55.042969 26.90625 54.132812 26.890625 53.769531 26.558594 C 53.675781 26.472656 53.621094 26.296875 53.621094 26.175781 C 53.621094 25.949219 53.785156 25.816406 53.988281 25.730469 L 54.183594 26.035156 C 54.097656 26.066406 54.050781 26.101562 54.050781 26.136719 C 54.050781 26.308594 55.363281 26.425781 56.363281 26.414062 C 57.367188 26.402344 58.582031 26.320312 58.582031 26.152344 C 58.582031 26.097656 58.488281 26.050781 58.332031 26.011719 L 58.523438 25.710938 C 58.785156 25.792969 59.011719 25.945312 59.011719 26.214844 C 59.007812 26.675781 58.425781 26.746094 58.042969 26.796875 "/>
<path style=" stroke:none;fill-rule:nonzero;fill:rgb(82.745098%,29.019608%,27.843137%);fill-opacity:1;" d="M 72.351562 2.683594 C 72.632812 2.359375 72.207031 1.53125 71.402344 0.832031 C 70.597656 0.136719 69.714844 -0.167969 69.433594 0.160156 C 69.15625 0.480469 69.582031 1.308594 70.386719 2.003906 C 71.191406 2.703125 72.070312 3.007812 72.351562 2.683594 "/>
<path style=" stroke:none;fill-rule:nonzero;fill:rgb(82.745098%,29.019608%,27.843137%);fill-opacity:1;" d="M 61.703125 57.925781 C 61.441406 55.386719 67.261719 51.707031 65.769531 51.585938 C 62.550781 51.769531 60.949219 55.355469 59.332031 59.113281 C 58.738281 60.488281 56.707031 66.359375 55.378906 65.636719 C 54.046875 64.914062 57.105469 60.089844 57.960938 57.222656 C 56.972656 57.945312 53.347656 60.761719 52.414062 58.125 C 50.910156 59.402344 47.703125 60.089844 48.066406 56.738281 C 47.265625 58.15625 45.472656 60.128906 43.320312 59.308594 C 40.492188 58.230469 44.957031 49.230469 46.066406 49.683594 C 47.175781 50.136719 45.84375 52.1875 45.496094 52.984375 C 44.726562 54.738281 43.839844 56.941406 44.433594 57.394531 C 45.449219 58.164062 48.210938 54.46875 48.273438 54.386719 C 48.792969 53.703125 50.261719 49.234375 51.449219 49.746094 C 52.636719 50.261719 48.488281 56.160156 50.042969 57.332031 C 50.355469 57.570312 51.636719 57.1875 52.414062 56.347656 C 52.917969 55.800781 52.746094 54.59375 54.425781 50.589844 C 56.105469 46.582031 57.597656 41.59375 58.753906 41.972656 C 59.902344 42.355469 58.953125 44.914062 58.542969 45.867188 C 56.601562 50.347656 53.246094 57.746094 54.832031 57.1875 C 56.410156 56.628906 57.234375 56.59375 58.785156 54.785156 C 60.332031 52.972656 60.261719 49.984375 61.292969 50.050781 C 62.324219 50.113281 62.152344 51.070312 61.902344 51.800781 C 62.917969 50.636719 66.714844 48.1875 67.636719 50.613281 C 68.722656 53.484375 62.199219 57.628906 63.824219 57.417969 C 65.410156 57.214844 67.980469 55.585938 69.074219 54.105469 L 72.097656 26.964844 C 72.097656 26.964844 69.058594 29.476562 49.730469 29.476562 C 30.402344 29.476562 27.675781 27.015625 27.675781 27.015625 L 30.246094 51.792969 C 31.613281 47.914062 34.851562 40.070312 39.957031 40.332031 C 42.28125 40.453125 45.382812 44.925781 42.726562 45.078125 C 41.601562 45.140625 41.488281 42.84375 40.15625 42.507812 C 39.195312 42.261719 37.859375 43.042969 36.996094 43.890625 C 35.269531 45.578125 31.5625 52.238281 32.050781 55.554688 C 32.675781 59.785156 37.890625 54.082031 38.773438 52.390625 C 39.394531 51.199219 39.816406 47.667969 41.175781 48.035156 C 42.535156 48.410156 41.054688 52.054688 40.070312 55.277344 C 38.964844 58.894531 38.378906 62.714844 36.996094 62.277344 C 35.605469 61.835938 37.867188 57.164062 37.785156 56.347656 C 36.480469 57.550781 34.078125 60.59375 31.003906 59.085938 L 32.601562 74.472656 C 32.601562 74.472656 36.84375 77.824219 49.625 77.824219 C 62.40625 77.824219 66.804688 74.523438 66.804688 74.523438 L 68.785156 56.703125 C 67.167969 58.285156 62.035156 61.089844 61.703125 57.925781 "/>
</g>
</svg>
