<?xml version="1.0" encoding="UTF-8"?>
<svg xmlns="http://www.w3.org/2000/svg" xmlns:xlink="http://www.w3.org/1999/xlink" width="100px" height="100px" viewBox="0 0 100 100" version="1.1">
<g id="surface1">
<path style=" stroke:none;fill-rule:nonzero;fill:rgb(100%,79.215686%,15.686275%);fill-opacity:1;" d="M 6.25 6.25 L 93.75 6.25 L 93.75 93.75 L 6.25 93.75 Z M 6.25 6.25 "/>
<path style=" stroke:none;fill-rule:nonzero;fill:rgb(24.313725%,24.313725%,24.313725%);fill-opacity:1;" d="M 59.375 79.023438 L 65.816406 74.761719 C 66.324219 76.347656 69.519531 80.113281 73.558594 80.113281 C 77.597656 80.113281 79.472656 77.910156 79.472656 76.449219 C 79.472656 72.460938 75.347656 71.058594 73.367188 70.382812 C 73.042969 70.273438 72.777344 70.183594 72.597656 70.101562 C 72.503906 70.0625 72.363281 70.007812 72.179688 69.9375 C 69.980469 69.097656 61.851562 65.992188 61.851562 56.992188 C 61.851562 47.078125 71.417969 45.9375 73.582031 45.9375 C 74.996094 45.9375 81.800781 46.113281 85.191406 52.480469 L 78.941406 56.84375 C 77.574219 54.066406 75.296875 53.152344 73.894531 53.152344 C 70.433594 53.152344 69.710938 55.6875 69.710938 56.84375 C 69.710938 60.082031 73.472656 61.535156 76.648438 62.761719 C 77.480469 63.085938 78.269531 63.390625 78.941406 63.707031 C 82.402344 65.34375 87.5 68.019531 87.5 76.449219 C 87.5 80.667969 83.960938 87.5 75.046875 87.5 C 63.078125 87.5 59.902344 80.3125 59.375 79.023438 Z M 59.375 79.023438 "/>
<path style=" stroke:none;fill-rule:nonzero;fill:rgb(24.313725%,24.313725%,24.313725%);fill-opacity:1;" d="M 28.125 79.871094 L 34.839844 75.609375 C 35.363281 77.195312 37.410156 80.121094 40.378906 80.121094 C 43.34375 80.121094 44.863281 77.074219 44.863281 75.609375 L 44.863281 46.875 L 53.121094 46.875 L 53.121094 75.609375 C 53.253906 79.574219 51.054688 87.5 41.355469 87.5 C 32.433594 87.5 28.726562 82.199219 28.125 79.871094 Z M 28.125 79.871094 "/>
</g>
</svg>
