<?xml version="1.0" encoding="UTF-8"?>
<svg xmlns="http://www.w3.org/2000/svg" xmlns:xlink="http://www.w3.org/1999/xlink" width="100px" height="100px" viewBox="0 0 100 100" version="1.1">
<g id="surface1">
<path style=" stroke:none;fill-rule:nonzero;fill:rgb(80.392157%,40.392157%,60%);fill-opacity:1;" d="M 81.59375 54.910156 C 78.847656 54.917969 76.136719 55.542969 73.667969 56.75 C 72.894531 55.464844 72.292969 54.085938 71.890625 52.644531 C 71.660156 51.511719 71.605469 50.355469 71.730469 49.207031 C 71.996094 47.941406 72.34375 46.699219 72.769531 45.480469 C 72.753906 45.324219 72.578125 44.566406 70.816406 44.542969 C 69.058594 44.519531 67.542969 44.878906 67.378906 45.34375 C 67.074219 46.195312 66.832031 47.066406 66.644531 47.949219 C 65.191406 51.542969 63.398438 54.988281 61.292969 58.246094 C 60.113281 56.308594 59.628906 54.035156 59.917969 51.785156 C 60.183594 50.527344 60.53125 49.28125 60.957031 48.0625 C 60.941406 47.902344 60.765625 47.152344 59.003906 47.125 C 57.246094 47.097656 55.730469 47.457031 55.566406 47.925781 C 55.40625 48.390625 55.199219 49.488281 54.832031 50.53125 C 54.46875 51.574219 50.199219 61.113281 49.082031 63.574219 C 48.503906 64.824219 48.011719 65.839844 47.660156 66.527344 C 47.644531 66.574219 47.621094 66.613281 47.597656 66.65625 C 47.285156 67.246094 47.121094 67.566406 47.121094 67.566406 L 47.121094 67.582031 C 46.878906 68.015625 46.621094 68.417969 46.496094 68.417969 C 46.269531 67.523438 46.28125 66.589844 46.527344 65.699219 C 47.152344 62.390625 48.683594 57.246094 48.667969 57.066406 C 48.667969 56.972656 48.953125 56.078125 47.675781 55.613281 C 47.066406 55.324219 46.34375 55.449219 45.871094 55.925781 C 45.753906 55.925781 45.675781 56.199219 45.675781 56.199219 C 45.675781 56.199219 47.066406 50.417969 43.027344 50.417969 C 39.84375 51.054688 37.054688 52.949219 35.292969 55.675781 C 34.203125 56.265625 31.886719 57.527344 29.410156 58.886719 C 28.472656 59.417969 27.488281 59.941406 26.582031 60.449219 C 26.519531 60.386719 26.453125 60.308594 26.390625 60.246094 C 21.46875 55 12.421875 51.300781 12.8125 44.285156 C 12.957031 41.730469 13.832031 35.015625 30.183594 26.863281 C 43.640625 20.230469 54.347656 22.066406 56.203125 26.144531 C 58.855469 31.964844 50.464844 42.765625 36.5625 44.332031 C 33.449219 44.964844 30.214844 44.144531 27.769531 42.109375 C 27.035156 41.308594 26.925781 41.261719 26.652344 41.421875 C 26.207031 41.660156 26.496094 42.378906 26.652344 42.796875 C 27.722656 44.738281 29.535156 46.160156 31.671875 46.746094 C 37.140625 47.925781 42.84375 47.359375 47.972656 45.128906 C 56.410156 41.871094 62.972656 32.808594 61.050781 25.214844 C 59.113281 17.511719 46.332031 14.972656 34.230469 19.277344 C 26.652344 21.828125 19.648438 25.847656 13.621094 31.097656 C 6.957031 37.332031 5.902344 42.75 6.332031 45.019531 C 7.894531 53.078125 18.996094 58.316406 23.433594 62.207031 C 23.207031 62.339844 23.003906 62.449219 22.828125 62.542969 C 20.605469 63.644531 12.136719 68.074219 10.015625 72.753906 C 7.621094 78.066406 10.402344 81.863281 12.238281 82.378906 C 17.914062 83.738281 23.824219 81.339844 26.957031 76.417969 C 29.597656 72.371094 30.089844 67.289062 28.277344 62.8125 C 28.261719 62.777344 28.242188 62.746094 28.214844 62.714844 L 29.957031 61.691406 C 31.089844 61.019531 32.207031 60.402344 33.167969 59.886719 C 32.519531 61.761719 32.136719 63.722656 32.035156 65.707031 C 31.8125 68.746094 32.746094 71.757812 34.640625 74.144531 C 35.222656 74.644531 35.984375 74.894531 36.75 74.832031 C 38.625 74.832031 39.484375 73.269531 40.425781 71.410156 C 41.574219 69.144531 42.613281 66.503906 42.613281 66.503906 C 42.613281 66.503906 41.316406 73.636719 44.832031 73.636719 C 46.113281 73.636719 47.40625 71.972656 47.984375 71.136719 L 47.984375 71.152344 C 47.984375 71.152344 48.015625 71.105469 48.082031 70.988281 L 48.285156 70.65625 L 48.285156 70.625 C 48.800781 69.730469 49.949219 67.699219 51.660156 64.328125 C 53.863281 59.980469 55.988281 54.546875 55.988281 54.546875 C 56.195312 55.742188 56.480469 56.921875 56.839844 58.078125 C 57.351562 59.480469 57.960938 60.847656 58.660156 62.167969 C 58.144531 62.886719 57.828125 63.285156 57.828125 63.285156 L 57.84375 63.300781 C 57.425781 63.847656 56.980469 64.4375 56.484375 65.011719 C 55.003906 66.636719 53.636719 68.355469 52.378906 70.160156 C 51.988281 70.785156 52.160156 71.609375 52.761719 72.035156 C 53.417969 72.378906 54.167969 72.5 54.902344 72.386719 C 56.007812 72.324219 57.09375 72.078125 58.113281 71.652344 C 59.105469 71.304688 60.035156 70.816406 60.878906 70.199219 C 62.65625 68.972656 63.660156 66.90625 63.535156 64.75 C 63.433594 63.414062 63.097656 62.109375 62.527344 60.894531 C 62.6875 60.671875 62.839844 60.449219 62.988281 60.222656 C 64.769531 57.574219 66.371094 54.808594 67.785156 51.949219 C 67.988281 53.140625 68.273438 54.320312 68.628906 55.480469 C 69.054688 56.691406 69.578125 57.867188 70.191406 58.996094 C 68.152344 60.566406 66.539062 62.632812 65.515625 65 C 64.511719 67.910156 65.292969 69.21875 66.765625 69.519531 C 67.574219 69.578125 68.378906 69.410156 69.097656 69.042969 C 70.160156 68.695312 71.15625 68.183594 72.058594 67.527344 C 73.984375 66.386719 75.207031 64.355469 75.316406 62.121094 C 75.246094 61.023438 74.996094 59.945312 74.582031 58.925781 C 77.277344 57.871094 80.203125 57.535156 83.066406 57.949219 C 90.675781 58.84375 92.175781 63.589844 91.890625 65.589844 C 91.617188 67.027344 90.738281 68.269531 89.480469 69.011719 C 88.949219 69.34375 88.777344 69.457031 88.824219 69.699219 C 88.886719 70.050781 89.136719 70.03125 89.589844 69.96875 C 91.933594 69.238281 93.589844 67.140625 93.75 64.6875 C 93.988281 60 89.515625 54.859375 81.605469 54.90625 Z M 22.90625 74.6875 C 20.378906 77.4375 16.863281 78.472656 15.347656 77.597656 C 13.714844 76.660156 14.355469 72.597656 17.457031 69.683594 C 19.292969 68.027344 21.285156 66.546875 23.394531 65.253906 C 23.761719 65.03125 24.308594 64.714844 24.957031 64.316406 L 25.128906 64.222656 L 25.515625 63.980469 C 26.644531 67.761719 25.644531 71.851562 22.90625 74.6875 Z M 41.285156 62.1875 C 40.40625 64.328125 38.566406 69.8125 37.449219 69.503906 C 36.488281 69.25 35.886719 65.09375 37.261719 60.988281 C 37.953125 59.011719 38.960938 57.160156 40.246094 55.503906 C 41.621094 53.972656 43.140625 53.457031 43.503906 54.082031 C 43.171875 56.878906 42.425781 59.613281 41.285156 62.1875 Z M 56.449219 69.441406 C 56.082031 69.636719 55.730469 69.753906 55.574219 69.667969 C 55.457031 69.605469 55.730469 69.355469 55.730469 69.355469 C 55.730469 69.355469 57.636719 67.308594 58.386719 66.386719 C 58.816406 65.839844 59.324219 65.203125 59.871094 64.480469 L 59.871094 64.6875 C 59.871094 67.128906 57.503906 68.777344 56.453125 69.449219 Z M 68.152344 66.777344 C 67.878906 66.582031 67.925781 65.941406 68.839844 63.949219 C 69.472656 62.664062 70.359375 61.523438 71.441406 60.589844 C 71.609375 61.0625 71.699219 61.558594 71.699219 62.0625 C 71.726562 64.257812 70.269531 66.191406 68.152344 66.777344 Z M 68.152344 66.777344 "/>
</g>
</svg>
